{
    "asset" : {
        "generator" : "Khronos glTF Blender I/O v3.2.40",
        "version" : "2.0"
    },
    "scene" : 0,
    "scenes" : [
        {
            "name" : "Scene",
            "nodes" : [
                0
            ]
        }
    ],
    "nodes" : [
        {
            "mesh" : 0,
            "name" : "Cylinder",
            "scale" : [
                0.36484038829803467,
                1.1168254613876343,
                0.36484038829803467
            ],
            "translation" : [
                0,
                1.2633520364761353,
                0
            ]
        }
    ],
    "materials" : [
        {
            "doubleSided" : true,
            "name" : "Stump",
            "pbrMetallicRoughness" : {
                "metallicFactor" : 0
            }
        },
        {
            "doubleSided" : true,
            "name" : "Pattern",
            "pbrMetallicRoughness" : {
                "baseColorFactor" : [
                    0.8000000715255737,
                    0.043050434440374374,
                    0.04736129194498062,
                    1
                ],
                "metallicFactor" : 0,
                "roughnessFactor" : 0.5
            }
        }
    ],
    "meshes" : [
        {
            "name" : "Cylinder",
            "primitives" : [
                {
                    "attributes" : {
                        "POSITION" : 0,
                        "NORMAL" : 1,
                        "TEXCOORD_0" : 2
                    },
                    "indices" : 3,
                    "material" : 0
                },
                {
                    "attributes" : {
                        "POSITION" : 4,
                        "NORMAL" : 5,
                        "TEXCOORD_0" : 6
                    },
                    "indices" : 7,
                    "material" : 1
                }
            ]
        }
    ],
    "accessors" : [
        {
            "bufferView" : 0,
            "componentType" : 5126,
            "count" : 988,
            "max" : [
                0.8167372345924377,
                0.5301001071929932,
                0.8167372345924377
            ],
            "min" : [
                -0.8167372345924377,
                -1.112087368965149,
                -0.8167373538017273
            ],
            "type" : "VEC3"
        },
        {
            "bufferView" : 1,
            "componentType" : 5126,
            "count" : 988,
            "type" : "VEC3"
        },
        {
            "bufferView" : 2,
            "componentType" : 5126,
            "count" : 988,
            "type" : "VEC2"
        },
        {
            "bufferView" : 3,
            "componentType" : 5123,
            "count" : 4794,
            "type" : "SCALAR"
        },
        {
            "bufferView" : 4,
            "componentType" : 5126,
            "count" : 198,
            "max" : [
                0.7319245338439941,
                -0.1374128758907318,
                0.7319245338439941
            ],
            "min" : [
                -0.7319245338439941,
                -0.3597288131713867,
                -0.7319244742393494
            ],
            "type" : "VEC3"
        },
        {
            "bufferView" : 5,
            "componentType" : 5126,
            "count" : 198,
            "type" : "VEC3"
        },
        {
            "bufferView" : 6,
            "componentType" : 5126,
            "count" : 198,
            "type" : "VEC2"
        },
        {
            "bufferView" : 7,
            "componentType" : 5123,
            "count" : 576,
            "type" : "SCALAR"
        }
    ],
    "bufferViews" : [
        {
            "buffer" : 0,
            "byteLength" : 11856,
            "byteOffset" : 0
        },
        {
            "buffer" : 0,
            "byteLength" : 11856,
            "byteOffset" : 11856
        },
        {
            "buffer" : 0,
            "byteLength" : 7904,
            "byteOffset" : 23712
        },
        {
            "buffer" : 0,
            "byteLength" : 9588,
            "byteOffset" : 31616
        },
        {
            "buffer" : 0,
            "byteLength" : 2376,
            "byteOffset" : 41204
        },
        {
            "buffer" : 0,
            "byteLength" : 2376,
            "byteOffset" : 43580
        },
        {
            "buffer" : 0,
            "byteLength" : 1584,
            "byteOffset" : 45956
        },
        {
            "buffer" : 0,
            "byteLength" : 1152,
            "byteOffset" : 47540
        }
    ],
    "buffers" : [
        {
            "byteLength" : 48692,
            "uri" : "stump.bin"
        }
    ]
}
